# Blender v2.82 (sub 7) OBJ File: 'bsge.blend'
# www.blender.org
mtllib bsge_tri.mtl
o Character_Sheet
v 0.702998 0.008150 -0.645118
v -0.702998 0.008150 -0.645118
v -0.702998 -0.052660 -0.645118
v 0.702998 -0.052660 -0.645118
v 0.702998 0.068960 -0.645118
v -0.702998 0.068960 -0.645118
v 0.702998 0.008150 0.645118
v 0.702998 -0.052660 0.645118
v 0.702998 0.068960 0.645118
v 1.005655 0.008152 -0.392540
v -0.702998 0.008150 0.645118
v -0.702998 -0.052660 0.645118
v 1.005655 0.068962 -0.392540
v 1.005655 -0.052658 -0.392540
v -0.702998 0.068960 0.645118
v 1.005655 0.008152 0.392540
v 1.005655 0.068961 0.392540
v 1.005655 -0.052658 0.392540
v -1.005655 0.008152 -0.392540
v -1.005655 0.068962 -0.392540
v -1.005655 -0.052658 -0.392540
v 0.863730 0.068960 -0.511782
v 0.863730 -0.052658 -0.511782
v 0.863730 0.068960 0.511782
v -1.005655 0.008152 0.392540
v -1.005655 0.068961 0.392540
v -1.005655 -0.052658 0.392540
v 0.863730 0.008150 -0.511782
v 0.863730 -0.052658 0.511782
v 0.863730 0.008150 0.511782
v 1.005655 0.008152 0.000000
v 1.005655 0.068962 0.000000
v 1.005655 -0.052658 -0.000000
v 0.000115 0.068960 0.000000
v 0.003607 0.068960 0.000000
v 0.003607 -0.052658 -0.000000
v 0.000115 -0.052658 -0.000000
v -0.863730 0.068960 -0.511782
v -0.863730 -0.052658 -0.511782
v -0.863730 0.068960 0.511782
v -0.863730 0.008150 -0.511782
v -0.863730 -0.052658 0.511782
v -0.863730 0.008150 0.511782
v -1.005655 0.008152 0.000000
v -1.005655 0.068962 0.000000
v -1.005655 -0.052658 -0.000000
v -0.000115 0.068960 0.000000
v -0.003607 0.068960 0.000000
v -0.003607 -0.052658 -0.000000
v -0.000115 -0.052658 -0.000000
v 0.000000 -0.052660 -0.645118
v 0.000000 0.008150 -0.645118
v 0.000000 0.068960 -0.645118
v 0.000000 0.008150 0.645118
v 0.000000 -0.052660 0.645118
v 0.000000 0.068960 0.645118
v 0.000000 0.068960 0.120664
v 0.000000 -0.052659 0.120664
v 0.000000 -0.052658 -0.000000
v 0.000000 0.068960 0.000000
v 0.000000 -0.052659 -0.120664
v 0.000000 0.068960 -0.120664
vt 0.956928 0.359626
vt 0.978464 0.108231
vt 0.978464 0.359626
vt 0.999999 0.359626
vt 0.064606 1.000000
vt 0.043071 0.859626
vt 0.064606 0.859626
vt 0.064606 0.719252
vt 0.935392 0.611021
vt 0.913857 0.359626
vt 0.935392 0.359626
vt 0.956927 0.359626
vt 0.228464 0.359626
vt 0.228464 0.359667
vt 0.185732 0.359626
vt 0.935392 0.108231
vt 0.913857 0.050753
vt 0.935392 0.050753
vt 0.000000 0.859626
vt 0.021535 0.719252
vt 0.021535 0.859626
vt 0.956929 0.668499
vt 0.978464 0.611021
vt 0.978464 0.668499
vt 0.021535 1.000000
vt 0.043071 0.859626
vt 0.935393 0.000000
vt 0.956927 0.050753
vt 0.956927 0.108231
vt 0.228464 0.359585
vt 0.271197 0.359626
vt 0.866637 0.668499
vt 0.685392 0.719252
vt 0.685392 0.360916
vt 0.685392 0.000000
vt 0.866637 0.050753
vt 0.685392 0.358336
vt 0.956929 0.719252
vt 0.999999 0.668499
vt 0.978465 0.719252
vt 0.047220 0.050753
vt 0.228464 0.000000
vt 0.228464 0.358336
vt 0.086142 0.859626
vt 0.504148 0.668499
vt 0.456928 0.611021
vt 0.456928 0.359626
vt 0.642660 0.359626
vt 0.728125 0.359626
vt 0.913857 0.611021
vt 0.913857 0.668499
vt 0.935392 0.668499
vt 0.913857 0.719252
vt 0.956928 0.668499
vt 0.935393 0.719252
vt 0.956927 0.611021
vt 0.685392 0.359667
vt 0.685392 0.359626
vt 0.409708 0.668499
vt 0.228464 0.719252
vt 0.228464 0.360916
vt 0.956929 0.050753
vt 0.978464 0.050753
vt 0.956929 0.000000
vt 0.978465 0.000000
vt 0.999999 0.050753
vt 0.504148 0.050753
vt 0.999999 0.611021
vt 0.000000 0.611021
vt 0.000000 0.359626
vt 0.999999 0.108231
vt 0.409708 0.050753
vt 0.913857 0.000000
vt 0.685392 0.359585
vt 0.913857 0.108232
vt 0.913857 0.359626
vt 0.047220 0.668499
vt 0.456928 0.108232
vt 0.456928 0.108231
vt 0.456928 0.359626
vt 0.956928 0.108231
vt 0.043071 1.000000
vt 0.043071 0.719252
vt 0.913857 0.611021
vt 0.913856 0.108231
vt 0.000000 0.719252
vt 0.956928 0.611021
vt 0.000000 1.000000
vt 0.043071 1.000000
vt 0.956928 0.000000
vt 0.824408 0.719252
vt 0.824408 0.000000
vt 1.000000 0.719252
vt 0.089449 0.000000
vt 0.086142 0.719252
vt 0.546377 0.719252
vt 0.956928 0.719252
vt 0.086142 1.000000
vt 0.367480 0.719252
vt 1.000000 0.000000
vt 0.546377 0.000000
vt 0.456928 0.611021
vt 0.367480 0.000000
vt 0.043071 0.719252
vt 0.000000 0.108232
vt 0.089449 0.719252
vn 0.0000 0.0000 -1.0000
vn -0.3394 0.0000 -0.9407
vn 1.0000 0.0000 0.0000
vn -0.3394 0.0000 0.9407
vn 0.0000 0.0000 1.0000
vn 0.0000 -1.0000 -0.0000
vn 0.3394 0.0000 0.9407
vn 0.6409 0.0000 0.7676
vn -1.0000 -0.0000 0.0000
vn 0.6409 0.0000 -0.7676
vn 0.3394 0.0000 -0.9407
vn 0.6433 -0.0000 0.7656
vn -0.0000 1.0000 0.0000
vn 0.6433 -0.0000 -0.7656
vn -0.6409 0.0000 0.7676
vn -0.6433 -0.0000 0.7656
vn -0.6409 0.0000 -0.7676
vn -0.6433 -0.0000 -0.7656
usemtl material01
s 1
f 51/1/1 2/2/2 52/3/1
f 2/2/2 53/4/1 52/3/1
f 10/5/3 32/6/3 31/7/3
f 32/6/3 16/8/3 31/7/3
f 11/9/4 55/10/5 54/11/5
f 56/12/5 11/9/4 54/11/5
f 59/13/6 37/14/6 58/15/6
f 7/16/7 29/17/8 30/18/8
f 45/19/9 19/20/9 44/21/9
f 23/22/10 1/23/11 28/24/10
f 25/25/9 45/19/9 44/21/9
f 46/26/9 25/25/9 44/21/9
f 16/27/12 24/28/8 30/18/8
f 30/18/8 9/29/7 7/16/7
f 1/23/11 51/1/1 52/3/1
f 59/13/6 50/30/6 61/31/6
f 24/32/13 32/33/13 35/34/13
f 45/35/13 40/36/13 48/37/13
f 28/24/10 14/38/14 23/22/10
f 22/39/10 10/40/14 28/24/10
f 42/41/6 46/42/6 49/43/6
f 16/8/3 33/44/3 31/7/3
f 59/13/6 58/15/6 50/30/6
f 32/33/13 22/45/13 35/34/13
f 5/46/13 53/47/13 62/48/13
f 24/32/13 57/49/13 9/50/13
f 42/51/15 11/9/4 43/52/15
f 43/52/15 27/53/16 42/51/15
f 40/54/15 25/55/16 43/52/15
f 43/52/15 15/56/4 40/54/15
f 34/57/13 62/48/13 60/58/13
f 33/44/3 10/5/3 31/7/3
f 23/59/6 33/60/6 36/61/6
f 34/57/13 60/58/13 57/49/13
f 2/2/2 39/62/17 41/63/17
f 41/63/17 21/64/18 19/65/18
f 19/65/18 38/66/17 41/63/17
f 55/10/5 7/16/7 54/11/5
f 38/67/13 45/35/13 48/37/13
f 28/24/10 5/68/11 22/39/10
f 8/69/6 55/70/6 58/15/6
f 23/59/6 36/61/6 61/31/6
f 41/63/17 6/71/2 2/2/2
f 46/42/6 39/72/6 49/43/6
f 30/18/8 18/73/12 16/27/12
f 19/20/9 46/26/9 44/21/9
f 47/74/13 60/58/13 62/48/13
f 47/74/13 57/49/13 60/58/13
f 15/75/13 56/76/13 57/49/13
f 42/41/6 49/43/6 58/15/6
f 59/13/6 61/31/6 37/14/6
f 33/60/6 29/77/6 36/61/6
f 38/67/13 62/48/13 6/78/13
f 7/16/7 56/12/5 54/11/5
f 53/4/1 1/23/11 52/3/1
f 3/79/6 51/80/6 61/31/6
f 51/1/1 3/81/2 2/2/2
f 2/2/2 6/71/2 53/4/1
f 10/5/3 13/82/3 32/6/3
f 32/6/3 17/83/3 16/8/3
f 11/9/4 12/84/4 55/10/5
f 56/12/5 15/56/4 11/9/4
f 7/16/7 8/85/7 29/17/8
f 45/19/9 20/86/9 19/20/9
f 23/22/10 4/87/11 1/23/11
f 25/25/9 26/88/9 45/19/9
f 46/26/9 27/89/9 25/25/9
f 16/27/12 17/90/12 24/28/8
f 30/18/8 24/28/8 9/29/7
f 1/23/11 4/87/11 51/1/1
f 24/32/13 17/91/13 32/33/13
f 45/35/13 26/92/13 40/36/13
f 28/24/10 10/40/14 14/38/14
f 22/39/10 13/93/14 10/40/14
f 42/41/6 27/94/6 46/42/6
f 16/8/3 18/95/3 33/44/3
f 32/33/13 13/96/13 22/45/13
f 34/57/13 35/34/13 62/48/13
f 35/34/13 22/45/13 62/48/13
f 22/45/13 5/46/13 62/48/13
f 24/32/13 35/34/13 57/49/13
f 35/34/13 34/57/13 57/49/13
f 57/49/13 56/76/13 9/50/13
f 42/51/15 12/84/4 11/9/4
f 43/52/15 25/55/16 27/53/16
f 40/54/15 26/97/16 25/55/16
f 43/52/15 11/9/4 15/56/4
f 33/44/3 14/98/3 10/5/3
f 23/59/6 14/99/6 33/60/6
f 2/2/2 3/81/2 39/62/17
f 41/63/17 39/62/17 21/64/18
f 19/65/18 20/100/18 38/66/17
f 55/10/5 8/85/7 7/16/7
f 38/67/13 20/101/13 45/35/13
f 28/24/10 1/23/11 5/68/11
f 58/15/6 37/14/6 36/61/6
f 36/61/6 29/77/6 58/15/6
f 29/77/6 8/69/6 58/15/6
f 36/61/6 37/14/6 61/31/6
f 61/31/6 51/80/6 4/102/6
f 4/102/6 23/59/6 61/31/6
f 41/63/17 38/66/17 6/71/2
f 46/42/6 21/103/6 39/72/6
f 30/18/8 29/17/8 18/73/12
f 19/20/9 21/104/9 46/26/9
f 47/74/13 48/37/13 57/49/13
f 48/37/13 40/36/13 57/49/13
f 40/36/13 15/75/13 57/49/13
f 49/43/6 50/30/6 58/15/6
f 58/15/6 55/70/6 12/105/6
f 12/105/6 42/41/6 58/15/6
f 33/60/6 18/106/6 29/77/6
f 38/67/13 48/37/13 62/48/13
f 48/37/13 47/74/13 62/48/13
f 62/48/13 53/47/13 6/78/13
f 7/16/7 9/29/7 56/12/5
f 53/4/1 5/68/11 1/23/11
f 61/31/6 50/30/6 49/43/6
f 49/43/6 39/72/6 61/31/6
f 39/72/6 3/79/6 61/31/6
