# Created with Anim8or 0.98
# Object "object01":

mtllib sheet2obj.mtl

# Shape "mesh01":
g mesh01
# No. points 50:
v -4.35938 -0.44607 -3.80486
v 4.72138 -0.44607 -3.80486
v -4.35938 0.17807 -3.80486
v 4.72138 0.17807 -3.80486
v -4.35938 0.17807 4.10086
v 4.72138 0.17807 4.10086
v -4.35938 -0.44607 4.10086
v 4.72138 -0.44607 4.10086
v -5.33351 0.17808 -2.82975
v -5.33351 0.17808 3.15272
v -5.33351 -0.44606 -2.82975
v -5.33351 -0.44606 3.15272
v 5.68202 -0.44606 -2.81626
v 5.68202 -0.44606 3.16621
v 5.68202 0.17808 -2.81626
v 5.68202 0.17808 3.16621
v 0.18100 -0.44607 -3.80486
v 4.72138 -0.13400 -3.80486
v 0.18100 0.17807 -3.80486
v -4.35938 -0.13400 -3.80486
v -4.35938 -0.13400 4.10086
v 0.18100 0.17807 4.10086
v 4.72138 -0.13400 4.10086
v 0.18100 -0.44607 4.10086
v -5.33351 -0.13399 -2.82975
v -5.33351 0.17808 0.16149
v -5.33351 -0.13399 3.15272
v -5.33351 -0.44606 0.16149
v 5.68202 -0.44606 0.17497
v 5.68202 -0.13399 3.16621
v 5.68202 0.17808 0.17497
v 5.68202 -0.13399 -2.81626
v -4.84645 0.17807 -3.31731
v 5.2017 0.17807 -3.31056
v 5.2017 0.17807 3.63354
v -4.84645 0.17807 3.62679
v -4.84645 -0.44606 -3.31731
v -4.84645 -0.44606 3.62679
v 5.2017 -0.44606 3.63354
v 5.2017 -0.44606 -3.31056
v 0.18100 -0.13400 -3.80486
v 0.18100 -0.13400 4.10086
v -5.33351 -0.13399 0.16149
v 5.68202 -0.13399 0.17497
v 0.17763 0.17807 0.15811
v 0.17763 -0.44606 0.15811
v 5.2017 -0.13400 -3.31056
v -4.84645 -0.13400 -3.31731
v -4.84645 -0.13400 3.62679
v 5.2017 -0.13400 3.63354

# No. normals 142:
vn 0 0 -1
vn 0 0 -1
vn 0 0 -1
vn 0 0 -1
vn 0 0 1
vn 0 0 1
vn 0 0 1
vn 0 0 1
vn -1 0 0
vn -1 0 0
vn -1 0 0
vn -1 0 0
vn 1 0 0
vn 1 0 0
vn 1 0 0
vn 1 0 0
vn 0 1 0
vn 0 1 0
vn 0 1 -0.00001
vn 0 1 0
vn 0 1 0.00001
vn 0 1 0
vn 0 1 0
vn 0 1 0
vn 0 -1 0
vn 0 -1 0
vn 0 -1 0
vn 0 -1 0
vn 0 -1 -0.00001
vn 0 -1 0
vn 0 -1 0.00001
vn 0 -1 0
vn 0.71717 0 -0.69689
vn 0.71717 0 -0.69689
vn 0.71717 0 -0.69689
vn 0.71717 0 -0.69689
vn -0.70746 0 -0.70675
vn -0.70746 0 -0.70675
vn -0.70746 0 -0.70675
vn -0.70746 0 -0.70675
vn -0.69748 0 0.71660
vn -0.69748 0 0.71660
vn -0.69748 0 0.71660
vn -0.69748 0 0.71660
vn 0.69734 0 0.71674
vn 0.69734 0 0.71674
vn 0.69734 0 0.71674
vn 0.69734 0 0.71674
vn 0 0 -1
vn -0.70746 0 -0.70675
vn 0 -1 0
vn 0 0 -1
vn 0.71717 0 -0.69689
vn 0 -1 0
vn 0 0 -1
vn -0.70746 0 -0.70675
vn 0 1 0
vn 0 0 -1
vn 0.71717 0 -0.69689
vn 0 1 -0.00001
vn -0.37643 0 0.92645
vn 0 1 0
vn 0.37634 0 0.92648
vn 0 1 0
vn -0.37643 0 0.92645
vn 0 -1 0
vn 0.37634 0 0.92648
vn 0 -1 -0.00001
vn -0.92398 0 -0.38245
vn 0 1 0
vn -1 0 0
vn -0.69748 0 0.71660
vn 0 1 0
vn -0.92398 0 -0.38245
vn 0 -1 0
vn -1 0 0
vn -0.69748 0 0.71660
vn 0 -1 0
vn 0.92660 0 -0.37605
vn 0 -1 0.00001
vn 1 0 0
vn 0.69734 0 0.71674
vn 0 -1 0
vn 0.92660 0 -0.37605
vn 0 1 0
vn 1 0 0
vn 0.69734 0 0.71674
vn 0 1 0.00001
vn 0 0 -1
vn 0 -1 0
vn 0 0 -1
vn 0.71717 0 -0.69689
vn 0 0 -1
vn 0 1 0
vn 0 0 -1
vn -0.70746 0 -0.70675
vn -0.37643 0 0.92645
vn 0 0 1
vn 0 1 0
vn 0.37634 0 0.92648
vn 0 0 1
vn 0 -1 0
vn -0.92398 0 -0.38245
vn -1 0 0
vn 0 1 0
vn -1 0 0
vn -0.69748 0 0.71660
vn -1 0 0
vn 0 -1 0
vn 1 0 0
vn 0 -1 0
vn 1 0 0
vn 0.69734 0 0.71674
vn 1 0 0
vn 0 1 0
vn 0.92660 0 -0.37605
vn 0 1 0
vn -0.70746 0 -0.70675
vn 0 1 0
vn 0.71717 0 -0.69689
vn 0 1 0
vn 0.69734 0 0.71674
vn 0 1 0
vn -0.69748 0 0.71660
vn 0 -1 0
vn -0.70746 0 -0.70675
vn 0 -1 0
vn -0.69748 0 0.71660
vn 0 -1 0
vn 0.69734 0 0.71674
vn 0 -1 0
vn 0.71717 0 -0.69689
vn 0 0 -1
vn 0 0 1
vn -1 0 0
vn 1 0 0
vn 0 1 0
vn 0 -1 0
vn 0.71717 0 -0.69689
vn -0.70746 0 -0.70675
vn -0.69748 0 0.71660
vn 0.69734 0 0.71674

# No. texture coordinates 74:
vt 0.08843 1
vt 0.91279 1
vt 0.91279 1
vt 0.08843 1
vt 0.08843 0
vt 0.08843 0
vt 0.91279 0
vt 0.91279 0
vt 0 0.87666
vt 0 0.87666
vt 0 0.11993
vt 0 0.11993
vt 1 0.87495
vt 1 0.11822
vt 1 0.11822
vt 1 0.87495
vt 0.50061 1
vt 0.91279 1
vt 0.50061 1
vt 0.08843 1
vt 0.50061 1
vt 0.08843 0
vt 0.50061 0
vt 0.91279 0
vt 0.50061 0
vt 0.50061 0
vt 0 0.87666
vt 0 0.49829
vt 0 0.11993
vt 0 0.49829
vt 0 0.49829
vt 1 0.49659
vt 1 0.11822
vt 1 0.49659
vt 1 0.87495
vt 1 0.49659
vt 0.04422 0.93833
vt 0.50061 1
vt 0.95640 0.93748
vt 1 0.49659
vt 0.95640 0.05911
vt 0.50061 0
vt 0.04422 0.05997
vt 0 0.49829
vt 0.50031 0.49872
vt 0.04422 0.93833
vt 0 0.49829
vt 0.04422 0.05997
vt 0.50061 0
vt 0.95640 0.05911
vt 1 0.49659
vt 0.95640 0.93748
vt 0.50061 1
vt 0.50031 0.49872
vt 0.95640 0.93748
vt 1 0.87495
vt 0.95640 0.93748
vt 0.91279 1
vt 0.95640 0.93748
vt 0.08843 1
vt 0.04422 0.93833
vt 0 0.87666
vt 0.04422 0.93833
vt 0.04422 0.93833
vt 0.04422 0.05997
vt 0 0.11993
vt 0.04422 0.05997
vt 0.08843 0
vt 0.04422 0.05997
vt 0.91279 0
vt 0.95640 0.05911
vt 1 0.11822
vt 0.95640 0.05911
vt 0.95640 0.05911

# No. faces 48:

usemtl material01

f 41/21/133 17/17/89 1/1/49 20/20/95
f 41/21/133 18/18/91 2/2/52 17/17/89
f 41/21/133 19/19/93 4/3/58 18/18/91
f 41/21/133 20/20/95 3/4/55 19/19/93
f 42/26/134 21/22/97 7/5/65 24/25/101
f 42/26/134 22/23/98 5/6/61 21/22/97
f 42/26/134 23/24/100 6/7/63 22/23/98
f 42/26/134 24/25/101 8/8/67 23/24/100
f 43/31/135 25/27/103 11/9/74 28/30/108
f 43/31/135 26/28/104 9/10/69 25/27/103
f 43/31/135 27/29/106 10/11/71 26/28/104
f 43/31/135 28/30/108 12/12/76 27/29/106
f 44/36/136 29/32/110 13/13/79 32/35/116
f 44/36/136 30/33/112 14/14/81 29/32/110
f 44/36/136 31/34/114 16/15/86 30/33/112
f 44/36/136 32/35/116 15/16/84 31/34/114
f 45/45/137 33/37/117 9/10/70 26/44/105
f 45/45/137 19/38/94 3/4/57 33/37/117
f 45/45/137 34/39/119 4/3/60 19/38/94
f 45/45/137 31/40/115 15/16/85 34/39/119
f 45/45/137 35/41/121 16/15/88 31/40/115
f 45/45/137 22/42/99 6/7/64 35/41/121
f 45/45/137 36/43/123 5/6/62 22/42/99
f 45/45/137 26/44/105 10/11/73 36/43/123
f 46/54/138 37/46/125 1/1/51 17/53/90
f 46/54/138 28/47/109 11/9/75 37/46/125
f 46/54/138 38/48/127 12/12/78 28/47/109
f 46/54/138 24/49/102 7/5/66 38/48/127
f 46/54/138 39/50/129 8/8/68 24/49/102
f 46/54/138 29/51/111 14/14/83 39/50/129
f 46/54/138 40/52/131 13/13/80 29/51/111
f 46/54/138 17/53/90 2/2/54 40/52/131
f 47/59/139 40/55/132 2/2/53 18/58/92
f 47/59/139 32/56/116 13/13/79 40/55/132
f 47/59/139 34/57/120 15/16/84 32/56/116
f 47/59/139 18/58/92 4/3/59 34/57/120
f 48/64/140 20/60/96 1/1/50 37/63/126
f 48/64/140 33/61/118 3/4/56 20/60/96
f 48/64/140 25/62/103 9/10/69 33/61/118
f 48/64/140 37/63/126 11/9/74 25/62/103
f 49/69/141 38/65/128 7/5/65 21/68/97
f 49/69/141 27/66/107 12/12/77 38/65/128
f 49/69/141 36/67/124 10/11/72 27/66/107
f 49/69/141 21/68/97 5/6/61 36/67/124
f 50/74/142 23/70/100 8/8/67 39/73/130
f 50/74/142 35/71/122 6/7/63 23/70/100
f 50/74/142 30/72/113 16/15/87 35/71/122
f 50/74/142 39/73/130 14/14/82 30/72/113

# End of Object "object01"